<svg width="15" height="16" fill="none" xmlns="http://www.w3.org/2000/svg"><path d="M7.261 0v6.542H6.087L3.005 2.57v3.972H1.593V0h1.183l3.073 3.972V0H7.26ZM12.794 5.14h-2.87l-.547 1.402H7.911L10.666 0h1.413l2.763 6.542h-1.5l-.548-1.402Zm-.45-1.15-.98-2.504-.98 2.505h1.96ZM6.467 15.888l-.009-3.925-1.819 3.233h-.644l-1.81-3.15v3.842H.843V9.346h1.183l2.313 4.065 2.278-4.065h1.174l.018 6.542H6.467ZM12.021 16c-.883 0-1.571-.259-2.066-.776-.488-.517-.732-1.255-.732-2.215V9.346h1.43v3.607c0 1.172.459 1.757 1.377 1.757.448 0 .79-.14 1.025-.42.235-.287.353-.732.353-1.337V9.346h1.412v3.663c0 .96-.247 1.698-.741 2.215-.489.517-1.175.776-2.058.776Z" fill="#0F0E08"/></svg>